<svg width="18" height="32" viewBox="0 0 18 32" fill="none" xmlns="http://www.w3.org/2000/svg">
<path d="M8.99994 0C13.9705 0 18 4.07871 18 9.11004C18 13.0857 12.3802 26.0626 10.0222 31.3327C9.62411 32.2224 8.37589 32.2224 7.97781 31.3327C5.61979 26.0627 0 13.0859 0 9.11004C-0.000118256 4.07871 4.02935 0 8.99994 0ZM8.99994 14.8416C12.1272 14.8416 14.6624 12.2755 14.6624 9.10992C14.6624 5.94433 12.1273 3.37823 8.99994 3.37823C5.87256 3.37823 3.33745 5.94433 3.33745 9.10992C3.33745 12.2755 5.87256 14.8416 8.99994 14.8416Z" fill="#696969"/>
</svg>
