<svg width="410" height="60" viewBox="0 0 410 60" fill="none" xmlns="http://www.w3.org/2000/svg">
<g clip-path="url(#clip0_29_1577)">
<g clip-path="url(#clip1_29_1577)">
<path d="M51.6296 29.6971C50.733 30.194 50.6814 30.9956 50.5077 31.7597C49.6909 35.4162 48.8882 39.0727 47.6303 42.6214C45.6588 48.1718 42.0585 52.3721 36.942 55.1754C34.3415 56.6005 31.4876 57.4303 28.3989 56.7693C26.7607 56.4224 25.0896 56.2536 23.4327 55.9864C21.1608 55.6255 19.0485 54.7817 17.077 53.6472C14.4812 52.1565 12.7679 49.9438 12.1811 46.9717C11.0827 41.4307 11.6225 35.9788 13.2842 30.6346C13.8944 28.6704 14.3216 26.6312 15.481 24.8498C15.8847 24.2263 16.0818 23.3919 15.8284 22.4918C14.8145 22.0934 13.7442 22.1356 12.6881 22.4262C10.0641 23.1435 7.38854 22.8106 4.73173 22.8434C4.02763 22.8528 3.37986 22.6231 2.76964 22.2668C2.22514 21.9481 1.85431 21.5215 1.74635 20.9027C1.68063 20.5136 1.629 20.1198 1.60553 19.726C1.3943 16.2898 1.01408 12.8724 1 9.42684C1 8.93462 1 8.43771 1.05633 7.95017C1.40838 4.80463 2.78372 3.54829 5.93809 2.99982C10.5429 2.19351 15.1947 2.45134 19.8183 2.20289C21.7757 2.09507 23.7565 2.34821 25.7233 2.41384C26.3054 2.43259 26.9907 2.55916 27.4601 2.31539C28.8589 1.58409 29.9573 2.26383 31.0135 2.94356C31.7457 3.41235 32.3466 4.10615 32.9427 4.75776C33.9191 5.8219 34.0176 6.95635 33.3182 8.27832C31.5204 11.677 30.0418 15.2351 28.8683 18.8775C27.7558 22.3231 26.8217 25.8483 26.2913 29.4486C26.0895 30.8268 26.1082 32.205 26.4321 33.5692C26.7232 34.7974 27.3944 35.7865 28.6524 36.1147C29.9339 36.4475 30.9149 35.8334 31.7551 34.8537C32.478 34.0145 33.0413 33.0723 33.4262 32.0738C34.6607 28.8532 36.1487 25.7265 37.0828 22.3934C37.7447 20.026 38.4816 17.6774 39.0402 15.2866C39.6739 12.5677 40.7066 10.0081 42.143 7.65484C43.5746 5.30155 46.8229 4.70619 49.2403 5.81721C49.7707 6.06098 50.2589 6.43131 50.7095 6.81103C52.2163 8.08143 53.7043 9.35652 55.4646 10.3035C57.2342 11.2551 58.3467 12.9896 59.6845 14.4147C61.4494 16.2945 63.2988 18.0525 65.2703 19.6932C66.1904 20.4573 66.9555 21.3386 67.7488 22.22C69.2884 23.9357 69.3307 25.8343 68.2933 27.686C67.2371 29.5705 65.951 31.3378 64.6648 33.0817C63.848 34.188 62.8388 35.149 61.9423 36.1944C61.3461 36.8929 60.689 37.0054 59.8347 36.6772C58.7081 36.246 57.6754 35.6928 56.8305 34.8443C55.366 33.3817 53.9343 31.8863 52.4792 30.4143C52.2116 30.1424 51.8971 29.9221 51.6296 29.6971Z" fill="#FC7650"/>
<path d="M96.6621 58.7057C94.868 58.5329 93.2153 58.3135 91.5577 58.2341C89.8075 58.15 88.1061 57.8699 86.4046 57.473C83.3088 56.7585 81.1734 54.8534 79.6134 52.3693C78.1752 50.0766 77.556 47.541 77.9753 44.8188C78.1118 43.9409 78.3214 43.1191 78.7017 42.3113C80.2277 39.038 82.5288 36.3857 85.5856 34.3312C87.3699 33.1311 87.8574 33.1265 86.4972 30.689C85.176 28.3309 83.733 26.0382 82.4069 23.6848C80.7932 20.8131 79.0137 18.0208 78.3653 14.7475C78.2385 14.1171 77.829 13.5381 77.673 12.9077C77.3561 11.6516 78.1459 10.503 79.4964 10.4049C80.7005 10.3162 81.8804 9.92862 83.1187 10.1434C83.4648 10.2041 83.8646 10.078 84.2205 9.97531C86.4143 9.36828 88.6813 9.14882 90.9191 8.75658C91.0653 8.72857 91.2213 8.73791 91.3725 8.73324C92.5084 8.66786 93.0447 9.0601 93.2543 10.1527C93.3372 10.5823 93.2933 11.0353 93.4201 11.4509C94.6048 15.2891 95.8772 19.0994 97.7493 22.6996C97.9199 23.0264 98.0954 23.3486 98.3002 23.6568C98.8072 24.4273 98.8316 25.7067 99.8067 25.9215C100.762 26.1316 101.528 25.1324 102.356 24.6561C103.721 23.8716 105.013 22.9564 106.286 22.0412C107.1 21.4575 107.997 21.1026 108.967 20.9205C109.762 20.7711 110.483 20.9485 111.01 21.5929C111.293 21.9338 111.61 22.2606 111.844 22.6295C112.984 24.4459 114.306 26.1363 115.758 27.7332C117.567 29.7178 117.143 30.9038 114.681 32.0992C113.803 32.5241 112.897 32.9163 111.975 33.2525C109.83 34.0323 107.826 35.0549 105.896 36.2223C103.97 37.385 101.849 38.2115 99.9627 39.4536C98.0711 40.6956 96.5159 42.2973 94.7851 43.7074C94.4536 43.9783 94.2196 44.3985 94.0246 44.7861C93.5078 45.818 93.8101 46.5371 94.9119 47.1068C95.6042 47.4663 96.2867 47.6671 97.0911 47.429C97.5933 47.2796 98.1296 47.1955 98.6561 47.1722C103.21 46.9901 107.739 46.5558 112.273 46.1402C113.682 46.0095 114.203 46.4437 114.267 47.8025C114.281 48.092 114.281 48.3909 114.237 48.6757C113.984 50.3381 113.906 52.005 113.969 53.6861C113.984 54.0503 113.95 54.4145 113.921 54.7787C113.755 56.6418 113.248 57.1321 111.259 57.3329C110.279 57.4309 109.299 57.501 108.319 57.6131C104.404 58.0567 100.47 58.3648 96.667 58.715L96.6621 58.7057Z" fill="#FC7650"/>
<path d="M273.229 34.1865C272.961 35.2091 273.292 35.9656 273.307 36.7407C273.366 39.477 273.214 42.2039 272.629 44.8749C272.171 46.9761 271.313 48.9793 270.021 50.7584C268.422 52.967 266.477 54.8628 264.21 56.4551C263.269 57.1135 262.26 57.6458 261.187 58.0567C260.232 58.421 259.359 58.3369 258.623 57.4917C257.058 55.6987 255.537 53.8822 254.776 51.6129C254.503 50.8004 254.693 50.4128 255.537 50.1C257.331 49.4323 258.949 48.5451 260.319 47.2189C261.45 46.1216 262.274 44.9029 262.577 43.3806C263.035 41.0739 263.22 38.7345 263.274 36.3951C263.308 34.7702 263.181 33.1452 263.069 31.5202C263.006 30.591 262.742 30.3809 261.777 30.4042C260.149 30.4463 258.516 30.5163 256.887 30.619C255.664 30.6937 254.445 30.7311 253.231 30.5443C252.695 30.4649 252.173 30.3575 251.676 30.1101C251.032 29.7879 250.637 29.3629 250.506 28.6345C250.223 27.0983 249.847 25.5807 249.526 24.0491C249.457 23.7316 249.394 23.3954 249.438 23.0825C249.696 21.2661 249.838 21.0373 251.529 20.6591C252.646 20.4116 253.821 20.3836 254.971 20.2855C256.39 20.1641 257.814 20.0847 259.232 19.9727C259.637 19.94 260.037 19.8466 260.436 19.7766C260.831 19.7065 261.036 19.445 260.987 19.0855C260.914 18.5718 260.812 18.0582 260.636 17.5679C260.388 16.8815 260.256 16.1811 260.212 15.4667C260.154 14.4487 260.558 13.8417 261.616 13.6222C262.806 13.3747 264.025 13.216 265.239 13.1413C265.843 13.1039 266.443 13.1133 267.042 12.9685C267.993 12.7397 268.929 13.0339 269.87 13.1273C270.294 13.1693 270.621 13.4448 270.85 13.7763C271.147 14.2106 271.43 14.6588 271.493 15.1958C271.557 15.7141 271.654 16.2325 271.659 16.7508C271.698 19.5898 272.02 18.824 274.297 18.8987C275.906 18.9501 277.529 18.6325 279.143 18.4831C280.045 18.3991 280.908 18.5111 281.707 18.9361C282.083 19.1368 282.351 19.4123 282.395 19.8373C282.409 19.968 282.438 20.0988 282.438 20.2248C282.395 22.2327 282.809 24.2266 282.594 26.2391C282.555 26.622 282.536 27.0282 282.395 27.3831C282.19 27.8874 281.8 28.289 281.171 28.261C279.07 28.1582 276.988 28.7326 274.882 28.4244C274.619 28.387 274.341 28.3964 274.068 28.415C272.985 28.4944 272.664 28.8773 272.776 29.956C272.932 31.4409 273.093 32.9304 273.229 34.1912V34.1865Z" fill="#FBDBCA"/>
<path d="M239.79 20.3229C241.208 20.3136 242.764 20.2809 244.294 20.6498C245.289 20.8926 245.684 21.3362 245.742 22.2747C245.752 22.4055 245.767 22.5362 245.742 22.667C245.352 24.927 245.582 27.2104 245.547 29.4844C245.523 31.2354 245.786 32.9865 245.937 34.7422C245.952 34.9243 246.074 35.1064 246.157 35.2792C246.269 35.5266 246.683 35.6014 246.825 35.3866C247.117 34.9523 247.385 34.4994 247.654 34.0511C247.936 33.5795 248.326 33.2713 248.897 33.1172C249.862 32.8557 250.252 32.9024 250.798 33.7289C251.495 34.7842 252.305 35.7368 253.187 36.6426C254.147 37.6326 254.357 38.7346 254.084 40.07C253.66 42.1666 252.68 44.011 251.534 45.7808C250.286 47.7139 249.038 49.6564 247.298 51.244C246.659 51.8277 246.05 52.4441 245.235 52.8176C244.119 53.3313 243.378 53.2425 242.476 52.4207C240.974 51.0526 239.892 49.4043 239.112 47.5832C238.259 45.594 237.625 43.5348 237.035 41.4615C236.572 39.8272 236.031 38.2116 235.777 36.5352C235.348 33.7056 234.9 30.8712 234.622 28.0275C234.461 26.3512 234.607 24.6468 234.622 22.9565C234.632 21.9992 235.149 21.4623 236.065 21.0513C237.225 20.5377 238.478 20.6871 239.79 20.3182V20.3229Z" fill="#FBDBCA"/>
<path d="M170.62 17.6192C170.415 21.4201 170.23 25.2491 169.264 28.9987C168.728 31.0812 168.47 33.2198 167.821 35.2884C166.778 38.599 165.52 41.8303 163.638 44.7767C162.268 46.9153 160.728 48.9746 158.617 50.5762C156.481 52.2012 154.361 53.8355 151.943 55.0635C149.242 56.4364 146.419 57.4776 143.387 57.9679C142.543 58.1033 141.807 58.0333 141.071 57.6644C140.554 57.4029 140.149 57.0481 140.003 56.4877C139.73 55.4464 139.442 54.4051 139.213 53.3545C138.784 51.398 138.433 49.4368 138.531 47.4243C138.619 45.6219 138.823 45.267 140.744 44.6553C143.601 43.7448 146.117 42.2646 148.384 40.4388C150.446 38.7765 151.83 36.5959 152.474 34.065C153.498 30.0446 154.161 25.9635 154.439 21.831C154.717 17.7032 154.995 13.5708 154.907 9.43365C154.878 8.01414 155.458 6.90281 156.228 5.82883C156.75 5.09573 157.608 4.74552 158.49 4.65213C160.138 4.47002 161.766 3.7556 163.463 4.40465C164.979 3.9844 166.471 4.37663 167.968 4.54473C169.133 4.67548 169.479 5.01168 169.581 6.16036C169.771 8.29897 170.108 10.4189 170.278 12.5622C170.415 14.2385 170.503 15.9148 170.629 17.6239L170.62 17.6192Z" fill="#FC7650"/>
<path d="M123.583 17.6006C123.734 15.532 123.822 13.4588 124.31 11.4229C124.583 10.2929 124.997 9.21891 125.407 8.13093C125.894 6.83282 126.879 6.1324 128.229 5.91294C129.57 5.69347 130.925 5.53004 132.286 5.46467C133.885 5.38529 135.498 5.39463 137.097 5.45533C138.053 5.48802 138.541 6.02501 138.614 6.93088C138.643 7.30444 138.589 7.692 138.531 8.07023C138.102 10.8812 137.658 13.6922 137.224 16.5033C137.156 16.9562 137.088 17.4185 137.097 17.8761C137.102 18.2823 137.331 18.6932 137.775 18.7026C139.145 18.7212 139.964 19.5898 140.773 20.4256C141.651 21.3315 142.587 22.158 143.611 22.9051C143.928 23.1385 144.249 23.386 144.488 23.6849C145.054 24.3853 145.327 25.1651 144.961 26.0523C144.552 27.0562 144.171 28.0742 143.474 28.938C141.666 31.1793 139.828 33.3973 138.029 35.6433C136.941 37.0022 135.494 37.9827 134.182 39.1127C133.29 39.8832 132.339 39.8599 131.301 39.3556C129.429 38.445 128.229 36.9041 127.201 35.2651C125.655 32.7996 124.992 30.0026 124.436 27.2196C123.998 25.0437 123.817 22.8117 123.598 20.603C123.5 19.6131 123.583 18.6092 123.583 17.6099V17.6006Z" fill="#FC7650"/>
<path d="M202.738 37.8006C202.416 40.2427 202.075 42.951 201.631 45.6499C201.163 48.5403 200.993 51.4727 200.69 54.3911C200.651 54.7787 200.612 55.1709 200.559 55.5585C200.349 57.0527 199.808 57.5991 198.272 57.8139C197.872 57.8699 197.458 57.8559 197.053 57.8559C195.157 57.8559 193.255 57.8419 191.359 57.8279C191.086 57.8279 190.818 57.7998 190.545 57.7765C188.531 57.6037 187.888 56.9733 188.054 55.0122C188.234 52.8736 188.556 50.7443 188.858 48.6197C189.073 47.0881 189.37 45.5659 189.604 44.0343C190.145 40.4902 190.667 36.9461 191.218 33.4066C191.349 32.5708 191.598 31.7536 191.725 30.9225C191.822 30.2828 191.666 30.096 191.028 29.9466C189.365 29.559 187.668 29.5123 185.982 29.6617C184.812 29.7691 183.676 29.6384 182.53 29.5263C181.501 29.4283 180.965 28.8119 180.721 27.9247C180.599 27.4858 180.575 27.0235 180.516 26.5752C180.356 25.2864 180.185 23.9977 180.044 22.7042C179.98 22.1252 179.922 21.5275 179.985 20.9532C180.117 19.7345 180.853 19.0901 182.164 19.1555C183.88 19.2395 185.538 18.8333 187.23 18.7212C188.663 18.6278 190.077 18.6652 191.5 18.7445C191.842 18.7632 192.178 18.8286 192.514 18.8379C193.489 18.8706 193.753 18.6932 193.919 17.82C194.031 17.2457 194.089 16.662 194.148 16.0783C194.318 14.3272 194.465 12.5762 194.65 10.8252C194.811 9.28423 195.181 8.90601 196.8 8.79861C197.814 8.73324 198.838 8.77527 199.857 8.83597C201.275 8.92469 202.694 9.07878 204.113 9.20485C204.712 9.26089 205.117 9.53172 205.302 10.1061C205.619 11.1053 205.858 12.0952 205.712 13.1692C205.507 14.6541 205.327 16.1437 204.893 17.5865C204.834 17.7733 204.781 17.9601 204.732 18.1515C204.434 19.3516 204.707 19.7531 205.902 19.8605C206.238 19.8886 206.58 19.8652 206.921 19.8886C207.462 19.9212 208.008 19.9446 208.549 20.0146C210.699 20.2948 211.352 21.1166 210.704 23.0218C210.114 24.7635 209.729 26.5379 209.315 28.3123C209.256 28.5644 209.178 28.8166 209.1 29.064C208.535 30.8571 207.867 31.2867 205.985 31.0626C205.512 31.0065 205.044 30.9085 204.571 30.8664C203.918 30.8104 203.572 31.0626 203.425 31.7069C203.328 32.1505 203.289 32.6081 203.24 33.0611C203.084 34.5506 202.938 36.0449 202.757 37.8006H202.738Z" fill="#FBDBCA"/>
<path d="M215.818 58.5237C213.634 58.2669 210.996 57.3236 208.432 56.0816C206.594 55.1897 205.804 53.7375 205.507 51.9164C205.38 51.1366 205.4 50.3522 205.619 49.5957C205.931 48.5357 206.287 47.4804 206.682 46.4485C206.843 46.0329 207.116 45.636 207.413 45.2951C207.896 44.7488 208.598 44.6414 209.251 44.9916C209.666 45.2111 210.031 45.5099 210.416 45.7714C213.468 47.8306 216.818 48.4423 220.454 47.6999C220.586 47.6719 220.713 47.6065 220.844 47.5972C223.292 47.4291 223.511 47.7419 223.677 49.7825C223.779 51.0105 223.867 52.2433 223.979 53.4713C224.048 54.1858 224.057 54.8955 223.877 55.6006C223.653 56.4551 223.185 57.0808 222.346 57.5478C220.503 58.5657 218.563 58.8926 215.808 58.5284L215.818 58.5237Z" fill="#FBDBCA"/>
<path d="M216.33 32.1085C218.621 32.3419 220.922 32.482 223.155 33.1077C225.115 33.654 225.461 33.9576 225.637 35.8674C225.812 37.7538 225.612 39.6076 225.018 41.4287C224.74 42.2879 224.208 42.7455 223.282 42.8015C222.609 42.8389 221.927 42.9322 221.259 42.9042C218.085 42.7641 214.916 42.568 211.742 42.4373C210.914 42.4046 210.153 42.1431 209.354 42.0217C208.505 41.891 208.027 41.4147 207.818 40.6629C207.715 40.2893 207.652 39.9064 207.598 39.5235C207.345 37.6884 207.769 35.9 208.115 34.1257C208.456 32.3699 209.568 31.6462 211.465 31.7069C212.21 31.7302 212.951 31.8003 213.692 31.861C214.57 31.9357 215.448 32.0197 216.325 32.1038L216.33 32.1085Z" fill="#FBDBCA"/>
<path d="M219.499 23.5636C219.265 22.4849 218.909 21.4296 218.563 20.407C218.407 19.9401 218.251 19.4731 218.1 19.0015C217.983 18.6233 217.788 18.3011 217.598 17.9929L217.49 17.8201C217.193 17.3205 216.725 17.0917 216.116 17.1244C215.15 17.1804 214.317 17.3112 213.566 17.5213C213.2 17.624 212.864 17.7921 212.542 17.9602L212.415 18.0256C211.898 18.2871 211.645 18.7447 211.689 19.3564C211.699 19.4871 211.728 19.6179 211.762 19.7486L211.801 19.9074C211.986 20.8273 212.284 21.7285 212.571 22.5923C212.679 22.9192 212.786 23.2461 212.888 23.5729C213.283 24.8383 213.717 25.9123 214.214 26.8555C214.487 27.3785 214.77 27.7007 215.331 27.7521C215.472 27.7661 215.633 27.7614 215.818 27.7381C216.847 27.612 217.876 27.3692 218.865 27.0236C219.397 26.8369 219.743 26.4213 219.811 25.875V25.8516C219.845 25.1045 219.694 24.4228 219.548 23.7597L219.504 23.5542L219.499 23.5636Z" fill="#FBDBCA"/>
<path d="M225.856 22.8818C225.808 22.5783 225.749 22.2281 225.671 21.8778C225.461 20.9299 225.145 20.0007 224.842 19.1042C224.652 18.5485 224.467 17.9975 224.301 17.4372C224.243 17.2364 224.155 17.0403 224.067 16.8488L223.965 16.6247C223.828 16.3025 223.619 16.0831 223.355 15.999C223.238 15.9617 223.126 15.915 223.009 15.8729C222.605 15.7188 222.146 15.5414 221.61 15.6114C221.001 15.6908 220.367 15.7749 219.757 15.929C218.539 16.2372 218.495 16.9749 218.617 17.652C218.894 19.2676 219.25 20.7198 219.704 22.0973C219.957 22.8678 220.221 23.6616 220.728 24.3853C221.015 24.8009 221.352 25.0204 221.766 25.0624C221.907 25.0764 222.058 25.0624 222.219 25.0391C222.561 24.9784 222.902 24.9223 223.243 24.8616C223.623 24.7963 224.004 24.7356 224.384 24.6655C224.623 24.6188 224.847 24.5441 225.062 24.4647C225.676 24.2453 225.832 23.7223 225.905 23.2927V23.246L225.851 22.8818H225.856Z" fill="#FBDBCA"/>
<path d="M315.829 58.2715C314.308 58.2715 312.529 58.2108 310.466 58.0941C309.974 58.0661 309.545 57.7626 309.374 57.3236L305.898 48.447C305.757 48.0875 305.806 47.6859 306.03 47.3637C306.254 47.0415 306.62 46.8454 307.024 46.8314L312.343 46.6493L312.47 42.4608L298.312 52.5328C298.03 52.7336 297.669 52.8129 297.328 52.7476C296.981 52.6822 296.684 52.4814 296.504 52.1919L291.638 44.4219C291.292 43.8709 291.467 43.1565 292.028 42.8063L303.056 35.9609C302.861 35.9422 302.661 35.9189 302.461 35.8862C297.839 35.2091 295.572 32.3047 296.099 27.7146C296.206 26.5146 296.552 25.4733 297.142 24.5954L292.179 25.2398C291.833 25.2865 291.482 25.1885 291.214 24.9737C290.946 24.7589 290.785 24.446 290.765 24.1145L290.302 14.5701C290.288 14.2526 290.405 13.9444 290.629 13.7063C290.853 13.4681 291.165 13.3327 291.497 13.3187L313.289 12.4736L313.703 3.13932C313.718 2.81712 313.869 2.51361 314.118 2.29881C314.371 2.08402 314.703 1.97662 315.034 1.99997L324.765 2.6677C325.438 2.7144 325.955 3.26539 325.921 3.91445L325.521 12.1747L329.109 12.086C327.31 10.3023 327.12 8.32708 327.388 6.77215C327.388 6.7488 327.398 6.72546 327.403 6.69744C327.973 4.3347 329.577 2.79845 332.044 2.25212C334.818 1.7198 337.071 2.28014 338.767 3.90511C339.835 4.93239 340.961 6.76748 340.259 9.67655C340.059 10.4283 339.669 11.1754 339.079 11.9272L347.128 11.7685C347.455 11.7591 347.801 11.8899 348.04 12.1233C348.279 12.3568 348.41 12.6743 348.401 13.0012L348.167 20.1034C348.147 20.7432 347.601 21.2521 346.933 21.2615L337.295 21.3548L343.257 25.5433C343.56 25.7581 343.745 26.0897 343.764 26.4492C343.784 26.8088 343.628 27.159 343.35 27.3971L335.822 33.827L348.674 44.6974C348.927 44.9122 349.078 45.2111 349.093 45.5379C349.108 45.8601 348.986 46.173 348.757 46.4111L341.804 53.5134C341.575 53.7468 341.263 53.8822 340.932 53.8916C340.61 53.9009 340.278 53.7842 340.04 53.5647L325.155 40.0793C325.355 44.0857 325.458 47.7232 325.458 50.9218C325.458 55.7127 323.064 57.333 321.055 57.8466C319.934 58.1408 318.203 58.2855 315.824 58.2855L315.829 58.2715ZM310.184 32.9304L312.436 35.7648L312.948 22.5409L307.785 23.2086C308.419 23.6756 308.979 24.2452 309.472 24.9176C310.549 26.4679 311.09 28.1069 311.09 29.8206C311.09 30.9926 310.783 32.0386 310.184 32.9258V32.9304ZM325.224 24.8196L327.652 26.7107L333.955 21.3829L325.224 21.4669V24.8196Z" fill="#81C5AE"/>
<path d="M363.363 58.9999C363.251 58.9999 363.138 58.9859 363.026 58.9532C359.804 58.0707 356.162 56.7352 352.198 54.9842C351.906 54.8535 351.677 54.6153 351.565 54.3258C351.453 54.0316 351.467 53.7094 351.608 53.4293C354.012 48.531 356.533 43.488 359.092 38.4403C362.28 32.3374 366.195 25.9402 370.734 19.417L381.153 4.22726C381.489 3.7323 382.162 3.55953 382.717 3.82569L392.687 8.60253C392.999 8.75196 393.229 9.02279 393.321 9.34498C393.409 9.66717 393.35 10.0127 393.16 10.2929L382.206 26.1317L403.798 43.2592L408.571 47.1769C408.946 47.4851 409.093 47.98 408.937 48.433L408.483 49.7357C408.454 49.8151 408.42 49.8898 408.376 49.9645L404.071 56.9127C404.042 56.9594 404.013 57.0014 403.974 57.0481L403.067 58.1314C402.862 58.3789 402.555 58.5377 402.228 58.5657C401.897 58.5937 401.57 58.4956 401.321 58.2855L381.177 41.5922L375.346 37.2683L367.399 52.2853L364.469 58.3275C364.265 58.7478 363.826 59.0046 363.363 59.0046V58.9999Z" fill="#7FC5AD"/>
</g>
<path d="M52.7391 30.6611C51.8052 31.1821 51.7514 32.0226 51.5705 32.8237C50.7197 36.6576 49.8836 40.4915 48.5732 44.2123C46.5196 50.0319 42.7692 54.4359 37.4396 57.3752C34.7308 58.8695 31.7579 59.7394 28.5405 59.0464C26.8341 58.6827 25.0934 58.5057 23.3674 58.2256C21.0008 57.8471 18.8005 56.9624 16.7468 55.7729C14.0429 54.2098 12.2582 51.8899 11.647 48.7736C10.5028 42.9638 11.0651 37.2474 12.7961 31.6441C13.4317 29.5846 13.8767 27.4465 15.0844 25.5787C15.5049 24.925 15.7103 24.0501 15.4462 23.1064C14.3901 22.6886 13.2752 22.7328 12.1751 23.0376C9.4418 23.7896 6.65473 23.4406 3.88722 23.475C3.15379 23.4848 2.47902 23.244 1.84338 22.8704C1.27618 22.5362 0.889905 22.0889 0.777445 21.4401C0.708991 21.0322 0.655205 20.6193 0.630757 20.2064C0.410726 16.6035 0.0146688 13.0204 0 9.40767C0 8.89158 0 8.37056 0.0586751 7.85938C0.425394 4.56127 1.85804 3.244 5.14385 2.66892C9.94054 1.8235 14.7861 2.09384 19.6024 1.83333C21.6413 1.72028 23.7047 1.9857 25.7535 2.05452C26.3598 2.07418 27.0737 2.20689 27.5626 1.9513C29.0197 1.18452 30.1639 1.89723 31.264 2.60994C32.0268 3.10146 32.6527 3.82891 33.2737 4.51212C34.2907 5.62788 34.3934 6.81736 33.6648 8.20345C31.7921 11.767 30.2519 15.4976 29.0295 19.3167C27.8707 22.9294 26.8976 26.6257 26.3451 30.4005C26.1349 31.8456 26.1544 33.2907 26.4918 34.721C26.795 36.0088 27.4942 37.0459 28.8046 37.39C30.1394 37.739 31.1614 37.0951 32.0366 36.0678C32.7896 35.188 33.3763 34.2 33.7773 33.1531C35.0633 29.7763 36.6133 26.4979 37.5863 23.0032C38.2757 20.521 39.0434 18.0584 39.6252 15.5517C40.2853 12.7009 41.361 10.0172 42.8573 7.54972C44.3486 5.08229 47.7322 4.45805 50.2503 5.62296C50.8028 5.87855 51.3114 6.26685 51.7808 6.66499C53.3503 7.99701 54.9003 9.33395 56.7339 10.3268C58.5773 11.3246 59.7361 13.1432 61.1297 14.6375C62.9681 16.6085 64.8946 18.4517 66.9483 20.172C67.9066 20.9732 68.7036 21.8972 69.53 22.8213C71.1338 24.6203 71.1778 26.6109 70.0972 28.5524C68.997 30.5283 67.6573 32.3814 66.3175 34.2098C65.4667 35.3698 64.4155 36.3774 63.4816 37.4735C62.8606 38.2059 62.176 38.3239 61.2861 37.9798C60.1126 37.5276 59.0369 36.9476 58.1568 36.058C56.6312 34.5244 55.1399 32.9565 53.6241 31.4131C53.3454 31.128 53.0178 30.897 52.7391 30.6611ZM19.3774 4.57111C15.2457 4.32043 12.1555 5.22974 7.62287 5.22974C6.92366 5.22974 4.73312 5.73601 4.03391 5.88838C3.10489 6.08499 2.87997 8.27226 2.72839 9.17174C2.16609 12.4748 2.87508 15.763 3.3836 19.0169C3.65252 20.7471 5.30032 21.1403 6.97256 20.9879C9.83297 20.7225 11.9648 20.7323 14.8057 20.3293C16.2286 20.1278 16.9718 19.8378 18.3946 19.6706C19.6464 19.5232 19.2797 20.6733 19.3726 21.966C19.441 22.9343 18.5951 25.097 18.067 25.9031C14.7421 31.0199 14.5563 33.9936 13.8229 40.0147C13.4806 42.8065 13.7593 46.1243 14.4781 48.8768C15.1724 51.536 17.3727 53.4726 20.0278 54.4556C23.5434 55.7581 26.4478 56.1415 30.1492 56.4266C31.5183 56.5298 35.1268 55.6991 36.3541 55.1142C40.6032 53.0842 43.3902 49.388 45.4927 45.2691C47.3263 41.676 47.8495 38.1223 48.4314 34.1115C48.847 31.2558 49.4631 30.9609 49.8689 28.1051C49.9129 27.8004 49.9374 27.4858 50.0205 27.1909C50.3677 25.9621 51.5803 25.505 52.7 26.0948C53.3797 26.4487 53.7757 27.0336 54.206 27.6087C55.3795 29.1816 55.3991 28.9456 56.5921 30.4988C57.7265 31.9832 59.3547 33.3153 60.8363 34.4359C61.3008 34.7849 62.7237 34.4998 63.1197 34.1066C65.0364 32.2143 66.5816 29.0341 67.6915 26.5569C67.9555 25.967 67.1536 24.7677 66.7136 24.2614C66.3077 23.7994 65.5156 22.7279 65.0805 22.2904C63.2713 20.462 61.2128 19.3413 59.5308 17.3703C58.1323 15.7286 56.7339 14.0575 54.959 12.7746C52.9592 11.3344 51.4092 9.94835 49.4093 8.50819C48.3727 7.76108 46.3778 8.25751 45.4927 9.16683C44.9793 9.69276 44.3975 11.0838 44.1872 11.7916C42.7888 16.5446 41.2339 21.1206 39.9431 25.9031C38.7451 30.3416 36.5986 33.6348 34.2663 37.5374C34.0022 37.9749 33.6795 38.3878 33.3372 38.7711C31 41.4303 26.8732 41.0272 24.9271 38.0437C23.7879 36.2988 23.2353 34.6276 23.294 32.4649C23.3576 30.1843 23.6607 27.7807 24.2719 25.5738C25.1814 22.3003 25.8855 19.5625 27.2106 16.3873C28.3939 13.5414 29.1762 10.6758 30.4768 7.85447C31 6.71414 30.0954 5.0233 28.8437 4.90042C26.2864 4.64483 22.3601 4.38924 19.3774 4.57111Z" fill="black"/>
<path d="M95.9435 59.8672C94.1441 59.6854 92.4866 59.4543 90.8241 59.3708C89.0688 59.2823 87.3623 58.9874 85.6558 58.5696C82.5509 57.8176 80.4093 55.8122 78.8446 53.1973C77.4022 50.7839 76.7812 48.1149 77.2017 45.2494C77.3386 44.3253 77.5489 43.4602 77.9303 42.6099C79.4607 39.1643 81.7686 36.3725 84.8344 34.2098C86.624 32.9466 87.1129 32.9417 85.7487 30.3759C84.4236 27.8938 82.9763 25.4804 81.6464 23.0031C80.0279 19.9803 78.2432 17.041 77.5929 13.5954C77.4658 12.9318 77.055 12.3224 76.8986 11.6588C76.5807 10.3366 77.3729 9.12747 78.7273 9.02425C79.935 8.93086 81.1183 8.5229 82.3602 8.749C82.7074 8.8129 83.1083 8.68019 83.4653 8.57205C85.6656 7.93308 87.9393 7.70206 90.1836 7.28918C90.3303 7.25969 90.4867 7.26952 90.6383 7.26461C91.7776 7.19579 92.3154 7.60867 92.5257 8.75883C92.6088 9.21103 92.5648 9.68781 92.6919 10.1253C93.8801 14.1656 95.1563 18.1764 97.0339 21.966C97.205 22.3101 97.3811 22.6492 97.5864 22.9736C98.0949 23.7846 98.1194 25.1314 99.0973 25.3575C100.056 25.5787 100.823 24.5268 101.655 24.0255C103.024 23.1997 104.319 22.2363 105.596 21.273C106.412 20.6586 107.312 20.285 108.285 20.0933C109.082 19.936 109.806 20.1228 110.334 20.8011C110.617 21.1599 110.935 21.504 111.17 21.8923C112.314 23.8043 113.639 25.5836 115.096 27.2646C116.91 29.3536 116.485 30.602 114.015 31.8603C113.135 32.3076 112.226 32.7205 111.302 33.0744C109.15 33.8952 107.141 34.9717 105.204 36.2005C103.273 37.4244 101.146 38.2943 99.2538 39.6018C97.3566 40.9092 95.7968 42.5952 94.061 44.0796C93.7285 44.3646 93.4938 44.807 93.2982 45.215C92.78 46.3012 93.0831 47.0582 94.1882 47.6578C94.8825 48.0363 95.567 48.2477 96.3738 47.997C96.8774 47.8397 97.4153 47.7512 97.9434 47.7266C102.51 47.5349 107.053 47.0778 111.6 46.6404C113.013 46.5028 113.536 46.9599 113.6 48.3902C113.614 48.6949 113.614 49.0095 113.57 49.3093C113.316 51.0592 113.238 52.8139 113.302 54.5834C113.316 54.9667 113.282 55.3501 113.253 55.7335C113.086 57.6947 112.578 58.2108 110.583 58.4221C109.6 58.5254 108.617 58.5991 107.635 58.7171C103.708 59.184 99.7623 59.5084 95.9484 59.877L95.9435 59.8672ZM110.612 52.4649C110.612 52.4649 110.656 52.4649 110.681 52.4649C110.7 52.1602 110.739 51.8554 110.744 51.5458C110.754 49.9139 110.211 49.3831 108.583 49.4273C108.436 49.4273 108.295 49.5158 108.148 49.5305C104.896 49.8746 101.64 50.2088 98.3883 50.5529C96.9508 50.7053 95.5426 50.1892 94.0953 50.3907C93.6699 50.4497 93.1858 50.2727 92.7653 50.1007C92.0612 49.8107 91.362 49.442 91.0295 48.6949C90.2423 46.9353 90.0124 45.1904 91.1517 43.4553C91.6162 42.7426 92.0954 42.0545 92.7457 41.5187C94.7456 39.8721 96.7601 38.2452 98.7844 36.6232C99.0777 36.3872 99.4151 36.171 99.7623 36.0333C101.2 35.4878 102.471 34.6374 103.752 33.8166C106.075 32.3224 108.549 31.1575 111.101 30.1351C111.453 29.9926 111.805 29.8451 112.143 29.6632C112.788 29.3143 112.876 28.9653 112.436 28.3853C111.566 27.2253 110.593 26.1292 109.81 24.9102C108.3 22.5607 108.363 22.7475 105.928 24.2516C105.737 24.3695 105.591 24.5662 105.405 24.694C103.782 25.8294 102.188 27.0188 100.515 28.0756C98.0069 29.6632 97.8358 29.039 96.5987 27.0041C95.2981 24.8562 94.1784 22.5853 93.3031 20.2014C92.2225 17.2572 91.1713 14.3081 90.296 11.2951C89.9929 10.2432 89.6311 10.0073 88.6287 10.2481C86.399 10.779 84.14 11.0739 81.8664 11.2852C81.5632 11.3147 81.265 11.3786 80.9716 11.4475C80.0377 11.6785 79.8421 12.0078 80.0572 12.9171C80.6635 15.4681 81.7784 17.8323 82.9568 20.1277C84.8735 23.8633 86.9613 27.5153 89.1372 31.1034C90.6579 33.6151 90.4085 33.2513 88.3744 35.1634C88.0468 35.473 87.6117 35.6647 87.2303 35.9203C84.6779 37.6554 82.5069 39.7198 81.0107 42.5018C78.4681 47.2351 80.0866 51.2115 83.4066 54.5047C83.8271 54.9225 84.3992 55.2764 84.9615 55.4337C86.8635 55.9596 88.7754 56.6527 90.7165 56.7854C93.8263 56.9967 96.9606 56.8296 100.085 56.7755C100.838 56.7608 101.615 56.3922 102.334 56.5003C103.429 56.6625 104.447 56.4069 105.488 56.2742C106.847 56.1022 108.192 55.8466 109.537 55.591C110.221 55.4632 110.583 54.9962 110.603 54.2934C110.617 53.679 110.603 53.0695 110.603 52.4551L110.612 52.4649Z" fill="black"/>
<path d="M273.03 33.8805C272.761 34.9569 273.093 35.7532 273.108 36.5691C273.167 39.4494 273.015 42.3199 272.428 45.1314C271.969 47.3432 271.108 49.4519 269.813 51.3246C268.209 53.6495 266.258 55.645 263.984 57.3211C263.04 58.0142 262.028 58.5745 260.953 59.007C259.994 59.3904 259.119 59.3019 258.381 58.4123C256.811 56.5248 255.286 54.6128 254.523 52.224C254.249 51.3688 254.44 50.9608 255.286 50.6315C257.085 49.9286 258.708 48.9947 260.082 47.5988C261.217 46.4437 262.043 45.1609 262.346 43.5585C262.806 41.1304 262.992 38.6679 263.045 36.2054C263.08 34.4949 262.952 32.7844 262.84 31.0739C262.776 30.0958 262.512 29.8746 261.544 29.8991C259.911 29.9434 258.273 30.0171 256.64 30.1252C255.413 30.2039 254.19 30.2432 252.973 30.0466C252.435 29.963 251.912 29.85 251.413 29.5895C250.768 29.2503 250.372 28.8031 250.24 28.0363C249.956 26.4192 249.579 24.8217 249.257 23.2095C249.188 22.8753 249.125 22.5214 249.169 22.1921C249.428 20.2801 249.57 20.0392 251.266 19.6411C252.386 19.3806 253.564 19.3511 254.718 19.2479C256.141 19.1201 257.569 19.0365 258.992 18.9186C259.398 18.8842 259.799 18.7859 260.2 18.7121C260.596 18.6384 260.801 18.3631 260.752 17.9847C260.679 17.444 260.576 16.9033 260.4 16.3872C260.151 15.6647 260.019 14.9274 259.975 14.1754C259.916 13.1039 260.322 12.4649 261.383 12.2339C262.576 11.9734 263.798 11.8062 265.016 11.7276C265.622 11.6883 266.224 11.6981 266.825 11.5457C267.779 11.3049 268.717 11.6146 269.661 11.7129C270.086 11.7571 270.414 12.0471 270.644 12.3961C270.942 12.8532 271.226 13.325 271.289 13.8903C271.353 14.4359 271.451 14.9815 271.455 15.5271C271.495 18.5155 271.817 17.7094 274.101 17.7881C275.714 17.8421 277.343 17.5079 278.961 17.3506C279.866 17.2621 280.731 17.3801 281.533 17.8274C281.909 18.0387 282.178 18.3287 282.222 18.776C282.237 18.9136 282.266 19.0513 282.266 19.184C282.222 21.2975 282.638 23.3963 282.423 25.5148C282.384 25.9178 282.364 26.3454 282.222 26.719C282.017 27.2498 281.626 27.6726 280.995 27.6431C278.888 27.5349 276.8 28.1395 274.688 27.8151C274.423 27.7758 274.145 27.7856 273.871 27.8053C272.785 27.8888 272.463 28.2919 272.575 29.4273C272.732 30.9903 272.893 32.5583 273.03 33.8854V33.8805ZM255.74 21.499C254.787 21.5629 253.828 21.5728 252.885 21.7006C251.76 21.8529 251.472 22.2363 251.56 23.3521C251.653 24.517 251.985 25.6278 252.288 26.7534C252.503 27.5546 252.987 27.9626 253.731 27.938C255.564 27.879 257.398 28.1542 259.236 27.8544C260.444 27.6578 261.676 27.5546 262.894 27.5398C263.901 27.5251 264.385 28.0117 264.488 29.039C264.664 30.8134 264.801 32.5878 264.908 34.3671C265.07 37.1098 264.864 39.8328 264.615 42.5706C264.322 45.7949 262.996 48.2968 260.356 50.1302C259.408 50.7888 258.493 51.4966 257.569 52.1896C257.188 52.4747 257.07 52.8483 257.344 53.2612C258.029 54.2835 258.713 55.3059 259.437 56.2988C259.945 57.0016 260.273 57.0508 260.982 56.5838C262.693 55.4484 264.361 54.2442 265.793 52.7696C267.622 50.8871 269.108 48.7392 269.822 46.1882C270.717 43.0031 270.971 39.7099 270.776 36.4216C270.61 33.6396 270.458 30.8478 270.028 28.0756C269.783 26.5076 270.698 25.5148 272.287 25.7065C273.279 25.8244 274.184 25.6131 275.103 25.446C276.12 25.2592 277.123 25.7507 278.14 25.387C278.511 25.2543 278.951 25.3378 279.352 25.2838C279.704 25.2346 280.027 25.0527 280.081 24.6694C280.267 23.3128 280.33 21.9414 280.198 20.5799C280.134 19.9213 279.748 19.5919 279.098 19.5969C278.144 19.6067 277.191 19.6853 276.242 19.764C274.477 19.9065 272.712 20.1179 270.942 19.8328C269.832 19.6558 269.583 19.4199 269.436 18.2648C269.299 17.1786 269.231 16.0825 269.089 14.9913C269.001 14.3179 268.668 13.9689 268.028 13.9395C266.468 13.8756 264.913 13.9198 263.393 14.3425C262.615 14.5588 262.38 14.9176 262.493 15.6647C262.547 15.9989 262.679 16.3184 262.772 16.6477C263.016 17.5128 263.109 18.4025 263.036 19.297C262.938 20.4619 262.366 20.9731 261.187 21.0665C260.914 21.0862 260.635 21.1402 260.371 21.1009C258.801 20.8846 257.29 21.5089 255.735 21.504L255.74 21.499Z" fill="black"/>
<path d="M239.492 19.2873C240.915 19.2775 242.475 19.243 244.01 19.6314C245.008 19.8869 245.404 20.3539 245.462 21.3418C245.472 21.4795 245.487 21.6171 245.462 21.7547C245.071 24.1337 245.301 26.5372 245.267 28.9309C245.242 30.7741 245.506 32.6173 245.658 34.4655C245.673 34.6572 245.795 34.8488 245.878 35.0307C245.99 35.2912 246.406 35.3699 246.548 35.1438C246.841 34.6866 247.11 34.2099 247.379 33.738C247.663 33.2416 248.054 32.9172 248.626 32.755C249.594 32.4797 249.985 32.5289 250.533 33.3989C251.232 34.5097 252.044 35.5124 252.929 36.466C253.892 37.508 254.102 38.668 253.828 40.0737C253.403 42.2806 252.42 44.2222 251.271 46.085C250.019 48.1199 248.768 50.1646 247.022 51.8358C246.382 52.4502 245.77 53.099 244.954 53.4922C243.834 54.0329 243.091 53.9395 242.186 53.0745C240.68 51.6343 239.595 49.8992 238.813 47.9823C237.957 45.8884 237.321 43.7208 236.73 41.5385C236.265 39.8181 235.722 38.1175 235.468 36.3529C235.038 33.3743 234.588 30.3908 234.309 27.3974C234.148 25.6328 234.295 23.8388 234.309 22.0595C234.319 21.0518 234.837 20.4866 235.757 20.0541C236.92 19.5134 238.177 19.6707 239.492 19.2824V19.2873ZM236.48 28.0757C236.5 30.8331 237.135 33.5119 237.629 36.1956C238.074 38.609 238.886 40.9535 239.531 43.3276C240.128 45.5198 240.93 47.6382 242.108 49.565C243.35 51.595 243.981 51.5999 245.521 50.0221C247.946 47.535 249.54 44.5171 251.071 41.4598C251.369 40.8651 251.413 40.1425 251.589 39.4839C251.706 39.0464 251.589 38.6778 251.315 38.3436C251.095 38.0831 250.9 37.798 250.67 37.5473C250.186 37.0165 249.912 36.0383 249.032 36.2497C248.323 36.4217 248.347 37.3458 248.088 37.9553C247.795 38.6434 247.594 39.3758 247.267 40.0491C247.076 40.4374 246.685 40.58 246.22 40.4129C245.389 40.1081 244.841 39.5281 244.572 38.7024C243.404 35.1585 242.822 31.5114 243.091 27.7857C243.213 26.0604 242.964 24.3696 242.959 22.664C242.959 21.9612 242.651 21.6712 241.957 21.6073C240.939 21.509 239.918 21.4057 238.901 21.4401C237.277 21.4893 236.441 22.3593 236.324 23.9764C236.294 24.3844 236.285 24.7972 236.304 25.2101C236.353 26.1686 236.422 27.1271 236.485 28.0806L236.48 28.0757Z" fill="black"/>
<path d="M170.119 16.4413C169.913 20.4423 169.727 24.4728 168.759 28.4197C168.221 30.6119 167.962 32.863 167.312 35.0405C166.266 38.5254 165.004 41.9267 163.117 45.0282C161.743 47.2794 160.198 49.447 158.08 51.1329C155.939 52.8434 153.812 54.5637 151.387 55.8564C148.678 57.3015 145.847 58.3976 142.805 58.9137C141.959 59.0562 141.221 58.9825 140.483 58.5942C139.964 58.3189 139.559 57.9454 139.412 57.3555C139.138 56.2594 138.85 55.1634 138.62 54.0574C138.19 51.998 137.837 49.9336 137.935 47.8151C138.023 45.9178 138.229 45.5443 140.155 44.9004C143.02 43.9419 145.543 42.3838 147.817 40.462C149.885 38.7121 151.274 36.4167 151.92 33.7527C152.946 29.5207 153.611 25.2248 153.89 20.8748C154.169 16.5298 154.447 12.1798 154.359 7.82494C154.33 6.33072 154.912 5.1609 155.684 4.0304C156.208 3.25871 157.068 2.89007 157.953 2.79177C159.606 2.60007 161.239 1.84805 162.941 2.53126C164.461 2.08889 165.958 2.50177 167.459 2.67872C168.627 2.81634 168.974 3.17024 169.077 4.37938C169.268 6.63055 169.605 8.86206 169.776 11.1181C169.913 12.8827 170.001 14.6473 170.128 16.4462L170.119 16.4413ZM167.287 16.0923C167.684 12.9859 166.843 9.65832 166.476 6.2914C166.398 5.58852 166.006 5.36734 165.385 5.24937C163.293 4.84141 161.22 5.08717 159.156 5.39191C157.577 5.62293 157.205 6.11445 157.024 7.81511C156.975 8.2968 156.907 8.78341 156.922 9.2651C157.019 12.4944 156.858 15.7139 156.711 18.9432C156.516 23.2341 155.865 27.4612 155.23 31.6932C154.902 33.8608 154.027 35.8711 153.293 37.9159C153.025 38.6581 152.57 39.3708 152.066 39.9901C150.164 42.3199 148.013 44.3646 145.25 45.6573C144.16 46.1685 143.055 46.6551 141.969 47.1761C140.908 47.6824 140.62 48.1346 140.771 49.27C140.957 50.6266 141.231 51.9734 141.446 53.3251C141.558 54.0427 141.593 54.7701 141.974 55.4239C142.204 55.8122 142.527 56.053 142.962 55.94C144.981 55.414 147.04 54.9864 148.893 53.969C150.022 53.3496 151.162 52.7402 152.223 52.0127C154.795 50.2481 157.43 48.5475 159.22 45.8687C161.244 42.836 162.916 39.6411 164.016 36.1366C165.542 31.2705 166.275 26.2324 167.243 21.2484C167.287 21.0125 167.287 20.7716 167.287 20.5308C167.287 19.1594 167.287 17.793 167.287 16.1022V16.0923Z" fill="black"/>
<path d="M122.944 16.4218C123.095 14.2443 123.183 12.062 123.672 9.91894C123.946 8.72946 124.362 7.59896 124.773 6.45371C125.262 5.08728 126.249 4.35 127.604 4.11899C128.948 3.88797 130.308 3.71594 131.672 3.64713C133.276 3.56357 134.894 3.5734 136.498 3.63729C137.456 3.6717 137.945 4.23695 138.018 5.1905C138.048 5.58372 137.994 5.99168 137.935 6.38981C137.505 9.34877 137.06 12.3077 136.625 15.2667C136.556 15.7435 136.488 16.2301 136.498 16.7118C136.503 17.1394 136.732 17.5719 137.177 17.5818C138.551 17.6014 139.373 18.5156 140.185 19.3955C141.065 20.349 142.003 21.219 143.03 22.0054C143.348 22.2512 143.671 22.5117 143.91 22.8263C144.478 23.5636 144.751 24.3844 144.385 25.3183C143.974 26.3751 143.593 27.4466 142.893 28.3559C141.079 30.7152 139.236 33.0499 137.432 35.4141C136.341 36.8445 134.889 37.8767 133.574 39.0661C132.679 39.8772 131.726 39.8526 130.684 39.3217C128.806 38.3633 127.604 36.7412 126.572 35.016C125.022 32.4208 124.357 29.4766 123.8 26.5471C123.359 24.2566 123.179 21.9071 122.959 19.5822C122.861 18.5402 122.944 17.4834 122.944 16.4316V16.4218ZM125.711 19.1645C125.472 23.1212 126.533 27.7317 128.278 32.2193C128.811 33.5906 129.525 34.8391 130.665 35.8024C131.779 36.7462 132.058 36.7609 133.104 35.7877C136.063 33.0253 138.581 29.8944 140.732 26.4635C140.947 26.1244 141.109 25.7508 141.27 25.3822C141.402 25.0775 141.446 24.7236 141.216 24.463C140.424 23.5587 139.832 22.4822 138.796 21.7892C137.569 20.9732 137.045 20.9929 136.102 22.0546C135.73 22.4773 135.427 22.9639 135.031 23.362C134.586 23.8142 134.117 24.3107 133.359 23.9666C132.601 23.6225 132.337 23.19 132.469 22.2119C132.635 21.0126 132.816 19.8133 133.095 18.6385C133.843 15.4928 134.239 12.293 134.65 9.0981C134.723 8.53776 134.752 7.97251 134.747 7.40726C134.738 6.74371 134.381 6.35049 133.721 6.30626C132.195 6.20304 130.713 6.33083 129.193 6.65524C127.799 6.95506 127.124 7.60879 126.768 8.93589C125.941 12.003 125.692 15.1192 125.711 19.1743V19.1645Z" fill="black"/>
<path d="M202.331 37.6849C202.009 40.2556 201.666 43.1064 201.221 45.9474C200.752 48.9899 200.581 52.0767 200.278 55.1487C200.238 55.5566 200.199 55.9695 200.146 56.3775C199.935 57.9504 199.393 58.5254 197.852 58.7515C197.451 58.8105 197.036 58.7958 196.63 58.7958C194.728 58.7958 192.821 58.781 190.919 58.7663C190.645 58.7663 190.376 58.7368 190.102 58.7122C188.083 58.5303 187.438 57.8668 187.604 55.8024C187.785 53.5512 188.107 51.3099 188.411 49.0735C188.626 47.4613 188.924 45.8589 189.159 44.2467C189.701 40.5161 190.225 36.7855 190.777 33.0597C190.909 32.1799 191.159 31.3197 191.286 30.4448C191.383 29.7714 191.227 29.5748 190.586 29.4175C188.919 29.0096 187.217 28.9604 185.526 29.1177C184.352 29.2308 183.213 29.0931 182.064 28.9752C181.032 28.872 180.494 28.2232 180.25 27.2893C180.128 26.8272 180.103 26.3406 180.044 25.8688C179.883 24.5122 179.712 23.1556 179.57 21.7941C179.507 21.1846 179.448 20.5554 179.512 19.9508C179.644 18.668 180.382 17.9897 181.697 18.0585C183.418 18.147 185.081 17.7193 186.777 17.6014C188.215 17.5031 189.633 17.5424 191.061 17.626C191.403 17.6456 191.74 17.7144 192.078 17.7243C193.056 17.7587 193.32 17.5719 193.486 16.6527C193.598 16.0482 193.657 15.4338 193.716 14.8194C193.887 12.9762 194.034 11.133 194.219 9.28975C194.381 7.66773 194.752 7.2696 196.376 7.15655C197.393 7.08774 198.42 7.13197 199.441 7.19587C200.864 7.28926 202.287 7.45146 203.71 7.58417C204.312 7.64316 204.717 7.92824 204.903 8.53281C205.221 9.58467 205.461 10.6267 205.314 11.7572C205.109 13.3202 204.928 14.8882 204.492 16.407C204.434 16.6036 204.38 16.8002 204.331 17.0017C204.033 18.2649 204.307 18.6876 205.505 18.8007C205.842 18.8302 206.184 18.8056 206.526 18.8302C207.069 18.8646 207.617 18.8892 208.16 18.9629C210.316 19.2578 210.971 20.1229 210.321 22.1283C209.729 23.9617 209.343 25.8294 208.927 27.6972C208.869 27.9626 208.79 28.2281 208.712 28.4886C208.145 30.376 207.475 30.8282 205.588 30.5923C205.113 30.5333 204.644 30.4301 204.17 30.3858C203.515 30.3269 203.167 30.5923 203.021 31.2706C202.923 31.7375 202.884 32.2192 202.835 32.696C202.678 34.2639 202.532 35.8368 202.351 37.6849H202.331ZM196.161 13.8904C196.136 13.8904 196.107 13.8855 196.082 13.8806C196.004 14.6965 195.911 15.5173 195.848 16.3333C195.774 17.3015 195.422 18.1961 195.109 19.0956C194.855 19.8329 194.322 20.1966 193.545 20.1425C192.523 20.0737 191.501 20.0197 190.489 19.8771C187.804 19.4888 185.218 20.2949 182.582 20.4719C182.215 20.4964 181.947 20.811 181.971 21.1797C182.079 22.6788 182.23 24.173 182.372 25.6672C182.387 25.8 182.431 25.9376 182.484 26.0605C182.656 26.4783 182.988 26.7682 183.423 26.7191C185.8 26.4537 188.161 27.1565 190.538 26.8272C191.066 26.7535 191.628 26.8616 192.166 26.9255C193.178 27.0435 193.618 27.4711 193.696 28.4984C193.735 29.0391 193.672 29.5945 193.584 30.1303C193.432 31.074 193.183 31.998 193.046 32.9418C192.425 37.277 191.838 41.622 191.227 45.9572C191.139 46.5667 190.978 47.1615 190.826 47.7562C190.2 50.1548 190.283 52.6468 189.897 55.0799C189.78 55.8024 190.083 56.0875 190.802 56.1612C192.43 56.3283 194.058 56.4807 195.686 56.6134C196.019 56.6429 196.366 56.5839 196.694 56.5102C197.74 56.2841 197.911 56.0826 197.994 55.0061C198.043 54.3917 198.028 53.7675 198.107 53.158C198.732 48.3411 199.109 43.4947 199.828 38.6778C200.229 35.9892 200.742 33.2907 200.752 30.548C200.752 30.2728 200.767 29.9975 200.811 29.7321C201.021 28.3903 201.686 27.7759 203.011 27.8201C203.759 27.8447 204.497 28.0069 205.241 28.0855C206.013 28.1642 206.243 28.0364 206.453 27.3188C206.859 25.9376 207.206 24.5417 207.607 23.1605C207.954 21.9612 207.822 21.4008 206.316 21.3664C205.299 21.3468 204.277 21.219 203.265 21.0764C202.121 20.9093 201.72 20.4325 201.73 19.302C201.73 18.8302 201.803 18.3534 201.886 17.8815C202.204 16.0629 202.551 14.2492 202.854 12.4257C202.942 11.8899 202.972 11.3345 202.918 10.7987C202.869 10.2925 202.551 9.88449 202.009 9.83043C200.586 9.68297 199.158 9.565 197.73 9.47161C197.197 9.43721 196.85 9.73704 196.64 10.2335C196.449 10.6857 196.395 11.1526 196.371 11.6343C196.327 12.3863 196.234 13.1334 196.161 13.8806V13.8904Z" fill="black"/>
<path d="M215.45 59.4987C213.259 59.2284 210.614 58.2355 208.042 56.9281C206.199 55.9893 205.407 54.4606 205.108 52.5437C204.981 51.7229 205.001 50.8971 205.221 50.1009C205.534 48.9851 205.891 47.8743 206.287 46.788C206.448 46.3505 206.722 45.9328 207.02 45.5739C207.504 44.9989 208.208 44.8858 208.864 45.2545C209.279 45.4855 209.646 45.8 210.032 46.0753C213.093 48.2429 216.452 48.8868 220.1 48.1053C220.232 48.0758 220.359 48.007 220.491 47.9971C222.946 47.8202 223.166 48.1495 223.332 50.2975C223.435 51.5902 223.523 52.8878 223.635 54.1805C223.704 54.9325 223.713 55.6796 223.532 56.4218C223.308 57.3213 222.838 57.9799 221.997 58.4715C220.149 59.543 218.203 59.887 215.44 59.5037L215.45 59.4987ZM216.242 57.0608C217.699 57.2771 219.088 57.1689 220.452 56.5742C220.965 56.353 221.259 56.063 221.225 55.5223C221.137 54.092 221.024 52.6568 220.897 51.2264C220.863 50.8381 220.574 50.6366 220.193 50.6366C219.924 50.6366 219.655 50.7054 219.381 50.73C215.919 51.0249 212.614 50.5236 209.548 48.7885C209.431 48.7197 209.309 48.6558 209.186 48.6017C208.575 48.3412 208.072 48.5427 207.94 49.2014C207.744 50.2041 207.646 51.2314 207.485 52.2439C207.338 53.1729 207.734 53.7774 208.477 54.3132C210.805 56.004 213.455 56.7167 216.237 57.0608H216.242Z" fill="black"/>
<path d="M215.963 31.6932C218.261 31.939 220.569 32.0865 222.809 32.7451C224.774 33.3202 225.122 33.6397 225.298 35.65C225.474 37.6357 225.273 39.5871 224.677 41.504C224.398 42.4084 223.865 42.8901 222.936 42.9491C222.261 42.9884 221.577 43.0867 220.907 43.0572C217.724 42.9098 214.545 42.7033 211.362 42.5657C210.531 42.5313 209.768 42.256 208.966 42.1282C208.116 41.9906 207.636 41.4893 207.426 40.6979C207.323 40.3047 207.26 39.9017 207.206 39.4986C206.952 37.5669 207.377 35.6844 207.724 33.8166C208.067 31.9685 209.181 31.2066 211.084 31.2705C211.832 31.2951 212.575 31.3688 213.318 31.4327C214.198 31.5114 215.078 31.5999 215.958 31.6883L215.963 31.6932ZM216.555 34.087C214.599 33.7675 212.638 33.6987 210.663 33.8609C210.199 33.9002 209.886 34.1017 209.895 34.6129C209.91 35.7139 209.602 36.7559 209.426 37.8225C209.225 39.0464 209.519 40.3833 211.269 40.3096C211.538 40.2998 211.812 40.3244 212.086 40.344C213.504 40.4472 214.927 40.2359 216.35 40.462C217.42 40.6291 218.516 40.6439 219.601 40.6783C220.276 40.6979 220.951 40.6291 221.63 40.6045C222.163 40.5849 222.442 40.3637 222.638 39.8083C223.014 38.7367 222.902 37.6652 222.926 36.579C222.951 35.473 222.496 35.0602 221.567 34.9176C219.895 34.662 218.227 34.3622 216.56 34.082L216.555 34.087Z" fill="black"/>
<path d="M219.142 22.6985C218.907 21.5631 218.55 20.4523 218.203 19.3759C218.046 18.8843 217.89 18.3928 217.738 17.8964C217.621 17.4982 217.425 17.1591 217.235 16.8347L217.127 16.6528C216.829 16.1269 216.359 15.8861 215.748 15.9205C214.78 15.9794 213.944 16.1171 213.191 16.3383C212.824 16.4464 212.487 16.6233 212.164 16.8003L212.037 16.8691C211.519 17.1443 211.264 17.626 211.308 18.2699C211.318 18.4076 211.348 18.5452 211.382 18.6828L211.421 18.8499C211.607 19.8182 211.905 20.7669 212.193 21.6762C212.301 22.0202 212.409 22.3643 212.511 22.7084C212.907 24.0404 213.343 25.1709 213.841 26.1638C214.115 26.7143 214.399 27.0534 214.961 27.1075C215.103 27.1222 215.264 27.1173 215.45 27.0927C216.482 26.96 217.513 26.7044 218.506 26.3407C219.039 26.1441 219.386 25.7066 219.455 25.1316V25.107C219.489 24.3206 219.337 23.6029 219.19 22.905L219.146 22.6887L219.142 22.6985ZM217.611 24.3746C217.582 24.6646 217.489 24.6941 217.435 24.7089C216.804 24.8907 216.174 25.0628 215.533 25.22C215.474 25.2397 215.377 25.1316 215.362 25.1119C215.284 25.0136 215.225 24.9153 215.196 24.8268C215.034 24.3304 214.863 23.829 214.697 23.3326C214.237 21.9711 213.763 20.5604 213.382 19.1498C213.235 18.6058 213.442 18.2568 214.003 18.1028L214.076 18.0832C214.276 18.0291 214.482 18.0045 214.692 17.975C214.922 17.9455 215.152 17.916 215.372 17.8571C215.455 17.8325 215.528 17.8226 215.587 17.8276C215.719 17.8423 215.797 17.9308 215.87 18.1323L216.042 18.5747C216.262 19.135 216.487 19.7101 216.648 20.2852C216.912 21.2387 217.147 22.2218 217.372 23.1704L217.577 24.0256C217.606 24.1387 217.606 24.2616 217.611 24.3304V24.3697V24.3746Z" fill="black"/>
<path d="M225.518 21.9808C225.469 21.6613 225.41 21.2927 225.332 20.9241C225.122 19.9263 224.804 18.9481 224.501 18.0044C224.31 17.4195 224.124 16.8395 223.958 16.2497C223.899 16.0383 223.811 15.8319 223.723 15.6304L223.62 15.3944C223.484 15.0553 223.273 14.8243 223.009 14.7358C222.892 14.6965 222.779 14.6473 222.662 14.6031C222.256 14.4409 221.797 14.2541 221.259 14.3278C220.648 14.4114 220.012 14.4999 219.401 14.6621C218.178 14.9865 218.134 15.7631 218.257 16.4758C218.535 18.1765 218.892 19.7051 219.347 21.1551C219.601 21.9661 219.865 22.8017 220.374 23.5635C220.662 24.001 221 24.232 221.415 24.2762C221.557 24.291 221.709 24.2762 221.87 24.2517C222.212 24.1878 222.555 24.1288 222.897 24.0649C223.278 23.9961 223.66 23.9322 224.041 23.8584C224.281 23.8093 224.505 23.7307 224.721 23.6471C225.337 23.4161 225.493 22.8656 225.567 22.4134V22.3642L225.513 21.9808H225.518ZM223.601 22.0791C223.601 22.0791 223.567 22.0939 223.508 22.089C223.185 22.0742 222.892 22.143 222.613 22.2069C222.432 22.2512 222.251 22.2954 222.066 22.3102C221.846 22.3249 221.777 22.261 221.723 22.148L221.645 21.9858C221.523 21.7449 221.41 21.5188 221.332 21.2829C220.902 20.0393 220.599 18.781 220.276 17.2721C220.237 17.0902 220.208 16.8838 220.203 16.6675C220.198 16.5249 220.203 16.4758 220.408 16.4119C220.868 16.2694 221.298 16.2694 221.513 16.2841H221.562C221.626 16.2792 221.679 16.2743 221.728 16.2841C221.924 16.3038 222.002 16.4119 222.066 16.6036C222.188 16.9771 222.32 17.3458 222.452 17.7144C222.789 18.668 223.141 19.6559 223.352 20.6636L223.43 21.0175C223.498 21.3222 223.567 21.6269 223.606 21.9317C223.62 22.0349 223.606 22.0742 223.606 22.0791H223.601Z" fill="black"/>
<path d="M315.755 59.2331C314.229 59.2331 312.445 59.1692 310.376 59.0463C309.883 59.0168 309.452 58.6974 309.281 58.2353L305.795 48.8915C305.653 48.513 305.702 48.0903 305.927 47.7512C306.152 47.412 306.519 47.2056 306.924 47.1908L312.259 46.9992L312.386 42.5902L298.187 53.1923C297.903 53.4037 297.541 53.4872 297.199 53.4184C296.852 53.3496 296.554 53.1383 296.373 52.8335L291.493 44.6546C291.146 44.0746 291.322 43.3226 291.884 42.9539L302.944 35.7482C302.749 35.7286 302.548 35.704 302.348 35.6696C297.712 34.9569 295.439 31.8996 295.967 27.068C296.074 25.8048 296.422 24.7087 297.013 23.7846L292.036 24.4629C291.688 24.5121 291.336 24.4088 291.067 24.1827C290.799 23.9566 290.637 23.6273 290.618 23.2783L290.153 13.2316C290.138 12.8974 290.256 12.573 290.481 12.3223C290.706 12.0717 291.019 11.9291 291.351 11.9144L313.208 11.0247L313.623 1.1992C313.638 0.860053 313.789 0.540565 314.039 0.314465C314.293 0.088365 314.625 -0.0246849 314.958 -0.000108826L324.718 0.702767C325.392 0.751919 325.911 1.33191 325.876 2.01513L325.476 10.7101L329.074 10.6168C327.27 8.73914 327.079 6.66 327.348 5.02324C327.348 4.99866 327.358 4.97409 327.363 4.9446C327.935 2.4575 329.544 0.840393 332.018 0.265313C334.8 -0.295022 337.059 0.294804 338.761 2.0053C339.831 3.08664 340.961 5.01832 340.257 8.0805C340.056 8.87185 339.665 9.65828 339.073 10.4496L347.146 10.2825C347.474 10.2727 347.821 10.4103 348.061 10.6561C348.3 10.9018 348.432 11.2361 348.422 11.5801L348.188 19.0562C348.168 19.7296 347.62 20.2653 346.951 20.2751L337.284 20.3734L343.264 24.7824C343.567 25.0085 343.753 25.3575 343.772 25.7359C343.792 26.1144 343.635 26.4831 343.357 26.7337L335.807 33.502L348.696 44.9446C348.95 45.1707 349.102 45.4853 349.117 45.8293C349.131 46.1685 349.009 46.4978 348.779 46.7485L341.807 54.2245C341.577 54.4703 341.264 54.6128 340.931 54.6226C340.609 54.6325 340.276 54.5096 340.037 54.2786L325.109 40.0835C325.309 44.3007 325.412 48.1297 325.412 51.4966C325.412 56.5396 323.011 58.2452 320.997 58.7858C319.872 59.0955 318.136 59.2479 315.75 59.2479L315.755 59.2331ZM311.335 56.5838C316.924 56.8886 319.319 56.6281 320.346 56.3479C321.451 56.053 322.913 55.2272 322.913 51.4867C322.913 47.3481 322.757 42.5017 322.449 37.0753C322.42 36.5592 322.708 36.0825 323.168 35.8662C323.632 35.6499 324.18 35.7384 324.551 36.0923L340.839 51.5801L346.07 45.967L333.093 34.4408C332.825 34.2049 332.673 33.8608 332.673 33.502C332.673 33.1432 332.825 32.7991 333.089 32.5632L340.535 25.8883L335.621 22.2658L328.473 28.6064C328.013 29.0144 327.334 29.0242 326.859 28.6408L323.143 25.6032C322.85 25.3624 322.684 25.0085 322.684 24.63V19.2577C322.684 18.5696 323.236 18.0092 323.921 17.9994L345.728 17.7782L345.88 12.8286L336.042 13.035C336.042 13.035 336.022 13.035 336.017 13.035C335.494 13.035 335.025 12.7057 334.844 12.2142C334.658 11.7128 334.815 11.1476 335.225 10.8084C336.707 9.58947 337.582 8.47863 337.827 7.50051C338.188 5.91781 337.924 4.73324 336.99 3.78952C335.9 2.69343 334.448 2.34936 332.541 2.73275C331.05 3.08173 330.165 3.95664 329.803 5.48527C329.578 6.88119 329.744 8.921 333.509 10.6364C334.037 10.8773 334.335 11.4573 334.218 12.0323C334.101 12.6074 333.607 13.0252 333.025 13.04L324.194 13.2759C323.852 13.2857 323.515 13.1481 323.27 12.8974C323.026 12.6467 322.899 12.3076 322.913 11.9586L323.319 3.1358L316.058 2.61478L315.647 12.3027C315.618 12.9564 315.1 13.4774 314.449 13.5069L292.701 14.3916L293.043 21.8038L314 18.953C314.366 18.9038 314.733 19.0168 315.007 19.2675C315.281 19.5182 315.427 19.8721 315.418 20.2457L314.718 39.1692C314.718 39.2184 314.714 39.2626 314.704 39.3068C314.87 39.528 314.958 39.8033 314.948 40.0933L314.714 48.2722C314.694 48.9357 314.166 49.4666 313.511 49.4912L308.738 49.6632L311.33 56.6084L311.335 56.5838ZM294.251 44.4039L297.8 50.3513L312.249 39.5624L308.763 34.952L294.251 44.4039ZM310.093 32.5583L312.352 35.5418L312.865 21.6219L307.687 22.3248C308.323 22.8163 308.885 23.416 309.379 24.1238C310.46 25.7556 311.002 27.4808 311.002 29.2847C311.002 30.5184 310.694 31.6195 310.093 32.5533V32.5583ZM302.71 23.1899C301.781 23.1899 300.984 23.4553 300.275 23.9861C300.255 24.0009 300.235 24.0156 300.216 24.0255C299.145 24.7431 298.563 25.8097 298.446 27.2892C298.446 27.299 298.446 27.3137 298.446 27.3236C298.055 30.8625 299.38 32.6664 302.739 33.1874C304.289 33.4479 305.663 33.1383 306.944 32.2339C308.015 31.5162 308.504 30.5873 308.504 29.2896C308.504 27.992 308.117 26.7485 307.32 25.5492C306.445 24.2958 305.267 23.5438 303.736 23.2882C303.379 23.2243 303.037 23.1899 302.714 23.1899H302.71ZM325.177 24.0205L327.612 26.0112L333.934 20.4029L325.177 20.4914V24.0205Z" fill="black"/>
<path d="M363.429 60C363.316 60 363.204 59.9852 363.091 59.9508C359.859 59.0219 356.207 57.6161 352.231 55.7729C351.938 55.6353 351.708 55.3846 351.596 55.0799C351.483 54.7702 351.498 54.4311 351.64 54.1361C354.05 48.9801 356.578 43.6717 359.145 38.3583C362.343 31.9341 366.269 25.2003 370.822 18.3337L381.271 2.34455C381.608 1.82353 382.283 1.64167 382.84 1.92184L392.839 6.9501C393.152 7.10739 393.382 7.39247 393.475 7.73162C393.563 8.07077 393.504 8.43449 393.314 8.72941L382.327 25.4018L403.983 43.4308L408.77 47.5547C409.146 47.8791 409.293 48.4001 409.136 48.8769L408.682 50.2482C408.652 50.3318 408.618 50.4104 408.574 50.4891L404.257 57.8029C404.227 57.852 404.198 57.8963 404.159 57.9454L403.249 59.0858C403.044 59.3463 402.736 59.5134 402.408 59.5429C402.076 59.5724 401.748 59.4691 401.499 59.248L381.295 41.6761L375.447 37.1246L367.477 52.9319L364.538 59.2922C364.333 59.7346 363.893 60.0049 363.429 60.0049V60ZM354.383 54.0575C357.409 55.419 360.221 56.5053 362.768 57.2917L365.277 51.8555L373.931 34.6817C374.098 34.3524 374.396 34.1165 374.753 34.0378C375.105 33.9592 375.481 34.0378 375.77 34.2639L382.816 39.7493C382.816 39.7493 382.85 39.7788 382.87 39.7936L402.139 56.5495L402.203 56.4709L406.413 49.3487L406.565 48.8867L402.413 45.3133L379.926 26.5913C379.447 26.1932 379.339 25.4903 379.686 24.9644L390.517 8.52788L382.723 4.61046L372.865 19.6903C368.362 26.4782 364.49 33.1187 361.346 39.4446C358.974 44.35 356.632 49.2652 354.383 54.0575Z" fill="black"/>
</g>
<defs>
<clipPath id="clip0_29_1577">
<rect width="409.2" height="60" fill="white"/>
</clipPath>
<clipPath id="clip1_29_1577">
<rect width="408" height="57" fill="white" transform="translate(1 2)"/>
</clipPath>
</defs>
</svg>
